<?xml version="1.0"?>
<svg width="1800" height="1000" xmlns="http://www.w3.org/2000/svg" xmlns:svg="http://www.w3.org/2000/svg">
 <defs>
  <filter height="140%" id="shadow" width="140%" x="-20%" y="-20%"/>
  <style>.title { font: 700 28px Arial, sans-serif; fill:#0f172a; }
    .sub { font: 500 14px Arial, sans-serif; fill:#475569; }
    .head { font: 700 16px Arial, sans-serif; fill:#0f172a; }
    .text { font: 500 13px Arial, sans-serif; fill:#334155; }
    .small { font: 500 12px Arial, sans-serif; fill:#475569; }
    .box { fill:#ffffff; stroke:#94a3b8; stroke-width:1.6; rx:14; }
    .actor { fill:#ffffff; stroke:#0f172a; stroke-width:2; }
    .lifeline { stroke:#cbd5e1; stroke-width:2; stroke-dasharray:8 7; }
    .call { stroke:#334155; stroke-width:2.4; fill:none; marker-end:url(#arrow); }
    .ret { stroke:#64748b; stroke-width:2; fill:none; stroke-dasharray:8 6; marker-end:url(#arrowLight); }
    .activation { fill:#dbeafe; stroke:#60a5fa; stroke-width:1; rx:6; }
    .note { fill:#f8fafc; stroke:#cbd5e1; stroke-width:1.2; rx:10; }
    .alt { fill:#fff7ed; stroke:#fdba74; stroke-width:1.4; rx:12; }</style>
 </defs>
 <g class="layer">
  <title>Layer 1</title>
  <rect fill="#f8fafc" height="1000" id="svg_3" width="1800" x="29" y="-25"/>
  <text class="title" font-size="28" id="svg_4" transform="matrix(1 0 0 1 0 0)" x="413" y="39">Like + Notification Sequence Diagram</text>
  <text class="head" id="svg_11" text-anchor="middle" x="188" y="212">User</text>
  <line class="lifeline" id="svg_12" x1="188" x2="188" y1="170" y2="920"/>
  <rect class="box" filter="url(#shadow)" height="54" id="svg_13" transform="matrix(1 0 0 1 0 0)" width="160" x="345" y="98"/>
  <rect fill="#fff1f2" height="62" id="svg_74" rx="14" stroke="#e11d48" stroke-width="2" transform="matrix(1 0 0 1 0 0)" width="140" x="357.04" y="91.06"/>
  <text class="head" id="svg_14" text-anchor="middle" transform="matrix(1 0 0 1 0 0)" x="425" y="121">React Client</text>
  <line class="lifeline" id="svg_15" transform="matrix(1 0 0 1 0 0)" x1="425" x2="425" y1="155" y2="905"/>
  <rect class="box" filter="url(#shadow)" height="54" id="svg_16" width="160" x="582" y="98"/>
  <rect fill="#eef2ff" height="62" id="svg_75" rx="14" stroke="#6366f1" stroke-width="2" transform="matrix(1 0 0 1 0 0)" width="140" x="592.68" y="86.06"/>
  <text class="head" id="svg_17" text-anchor="middle" x="662" y="121">JwtAuthFilter</text>
  <line class="lifeline" id="svg_18" transform="matrix(1 0 0 1 0 0)" x1="662" x2="662" y1="149" y2="920"/>
  <rect class="box" filter="url(#shadow)" height="54" id="svg_19" width="160" x="819" y="98"/>
  <rect fill="#ecfccb" height="62" id="svg_76" rx="14" stroke="#65a30d" stroke-width="2" width="238" x="779.48" y="84.06"/>
  <text class="head" id="svg_20" text-anchor="middle" x="899" y="121">ResourceInteractionController</text>
  <line class="lifeline" id="svg_21" transform="matrix(1 0 0 1 0 0)" x1="899" x2="899" y1="146" y2="920"/>
  <rect class="box" filter="url(#shadow)" height="54" id="svg_22" width="160" x="1056" y="98"/>
  <rect fill="#f0fdf4" height="62" id="svg_77" rx="14" stroke="#16a34a" stroke-width="2" width="220" x="1028.48" y="84.06"/>
  <text class="head" id="svg_23" text-anchor="middle" x="1136" y="121">ResourceInteractionService</text>
  <line class="lifeline" id="svg_24" transform="matrix(1 0 0 1 0 0)" x1="1136" x2="1136" y1="147" y2="897"/>
  <rect class="box" filter="url(#shadow)" height="54" id="svg_25" width="160" x="1293" y="98"/>
  <rect fill="#fff7ed" height="62" id="svg_78" rx="14" stroke="#ea580c" stroke-width="2" transform="matrix(1 0 0 1 0 0) matrix(1 0 0 1 0 0)" width="221" x="1268.98" y="82.06"/>
  <text class="head" id="svg_26" text-anchor="middle" x="1373" y="121">NotificationService</text>
  <line class="lifeline" id="svg_27" transform="matrix(1 0 0 1 0 0)" x1="1373" x2="1373" y1="145" y2="920"/>
  <rect class="box" filter="url(#shadow)" height="54" id="svg_28" width="160" x="1530" y="98"/>
  <rect fill="#ecfeff" height="62" id="svg_79" rx="14" stroke="#0891b2" stroke-width="2" transform="matrix(1 0 0 1 0 0)" width="148" x="1530.64" y="82.26"/>
  <text class="head" id="svg_29" text-anchor="middle" x="1610" y="121">Repositories</text>
  <line class="lifeline" id="svg_30" transform="matrix(1 0 0 1 0 0)" x1="1610" x2="1610" y1="145" y2="920"/>
  <rect class="activation" height="63" id="svg_31" transform="matrix(1 0 0 1 0 0)" width="16" x="417" y="240"/>
  <rect class="activation" height="51" id="svg_32" transform="matrix(1 0 0 1 0 0)" width="16" x="655" y="305"/>
  <rect class="activation" height="50" id="svg_33" transform="matrix(1 0 0 1 0 0)" width="16" x="891" y="361"/>
  <rect class="activation" height="49" id="svg_34" transform="matrix(1 0 0 1 0 0)" width="16" x="1130" y="417"/>
  <rect class="activation" height="25" id="svg_35" transform="matrix(1 0 0 1 0 0)" width="16" x="1602" y="473"/>
  <rect class="activation" height="35" id="svg_36" transform="matrix(1 0 0 1 0 0)" width="16" x="1602" y="543"/>
  <rect class="activation" height="30" id="svg_37" transform="matrix(1 0 0 1 0 0)" width="16" x="1601" y="681"/>
  <rect class="activation" height="51" id="svg_38" transform="matrix(1 0 0 1 0 0)" width="16" x="1365" y="626"/>
  <line class="call" id="svg_39" transform="matrix(1 0 0 1 0 0)" x1="188" x2="415" y1="250" y2="250"/>
  <text class="text" id="svg_40" text-anchor="middle" transform="matrix(1 0 0 1 0 0)" x="306.5" y="244">Click Like</text>
  <line class="call" id="svg_41" transform="matrix(1 0 0 1 0 0)" x1="425" x2="651" y1="305" y2="305"/>
  <text class="text" font-size="13" id="svg_42" text-anchor="middle" transform="matrix(1 0 0 1 0 0)" x="575.5" y="296">POST /api/resources/{id}/like + Bearer token</text>
  <line class="call" id="svg_43" x1="662" x2="899" y1="360" y2="360"/>
  <text class="text" id="svg_44" text-anchor="middle" x="780.5" y="354">authenticated request</text>
  <line class="call" id="svg_45" x1="899" x2="1136" y1="415" y2="415"/>
  <text class="text" id="svg_46" text-anchor="middle" x="1017.5" y="409">like(resourceId, userId)</text>
  <line class="call" id="svg_47" x1="1136" x2="1610" y1="470" y2="470"/>
  <text class="text" id="svg_48" text-anchor="middle" x="1373" y="464">check resource exists + existing like</text>
  <line class="ret" id="svg_49" x1="1610" x2="1136" y1="505" y2="505"/>
  <text class="text" id="svg_50" text-anchor="middle" x="1373" y="499">resource found, not liked</text>
  <line class="call" id="svg_51" x1="1136" x2="1610" y1="545" y2="545"/>
  <text class="text" id="svg_52" text-anchor="middle" x="1373" y="539">save like + log activity</text>
  <line class="ret" id="svg_53" x1="1610" x2="1136" y1="580" y2="580"/>
  <text class="text" id="svg_54" text-anchor="middle" x="1373" y="574">persisted</text>
  <line class="call" id="svg_55" x1="1136" x2="1373" y1="625" y2="625"/>
  <text class="text" id="svg_56" text-anchor="middle" x="1254.5" y="619">notifyLike(resourceId, actorId)</text>
  <line class="call" id="svg_57" x1="1373" x2="1610" y1="680" y2="680"/>
  <text class="text" font-size="13" id="svg_58" text-anchor="middle" transform="matrix(1 0 0 1 0 0)" x="1455.5" y="673">load resource/owner; skip self-like; save notification</text>
  <line class="ret" id="svg_59" x1="1610" x2="1373" y1="715" y2="715"/>
  <text class="text" id="svg_60" text-anchor="middle" x="1491.5" y="709">notification saved or skipped</text>
  <line class="ret" id="svg_61" x1="1373" x2="1136" y1="760" y2="760"/>
  <text class="text" id="svg_62" text-anchor="middle" x="1254.5" y="754">done</text>
  <line class="ret" id="svg_63" x1="1136" x2="899" y1="815" y2="815"/>
  <text class="text" id="svg_64" text-anchor="middle" x="1017.5" y="809">success</text>
  <line class="ret" id="svg_65" x1="899" x2="425" y1="870" y2="870"/>
  <text class="text" id="svg_66" text-anchor="middle" x="662" y="864">200 OK</text>
  <line class="ret" id="svg_67" x1="425" x2="188" y1="925" y2="925"/>
  <text class="text" id="svg_68" text-anchor="middle" x="306.5" y="919">update like state / count</text>
  <rect class="note" height="100" id="svg_69" width="400" x="1320" y="830"/>
  <text class="head" id="svg_70" x="1336" y="854">Notes</text>
  <text class="small" id="svg_71" x="1336" y="876">JWT filter authenticates request before controller logic.</text>
  <text class="small" id="svg_72" x="1336" y="894">Notification is skipped for self-like in service logic.</text>
  <text class="small" id="svg_73" x="1336" y="912">Repository lifeline groups multiple repository calls for clarity.</text>
  <g id="svg_80" transform="matrix(1 0 0 1 0 0) translate(-80 -15) translate(-413 -46) matrix(1 0 0 1 645.52 147.175)">
   <circle cx="35" cy="22" fill="none" id="svg_81" r="14" stroke="#0f172a" stroke-width="3"/>
   <line id="svg_82" stroke="#0f172a" stroke-width="3" x1="35" x2="35" y1="36" y2="76"/>
   <line id="svg_83" stroke="#0f172a" stroke-width="3" x1="11" x2="59" y1="50" y2="50"/>
   <line id="svg_84" stroke="#0f172a" stroke-width="3" x1="35" x2="14" y1="76" y2="106"/>
   <line id="svg_85" stroke="#0f172a" stroke-width="3" x1="35" x2="56" y1="76" y2="106"/>
  </g>
 </g>
</svg>