<?xml version="1.0"?>
<svg width="1700" height="1080" xmlns="http://www.w3.org/2000/svg" xmlns:svg="http://www.w3.org/2000/svg">
 <defs>
  <style>.title { font: 700 28px Arial, sans-serif; fill:#0f172a; }
      .sub { font: 500 14px Arial, sans-serif; fill:#475569; }
      .boxLabel1 { font: 700 17px Arial, sans-serif; fill:#0f172a; }
      .boxLabel2 { font: 500 14px Arial, sans-serif; fill:#334155; }
      .msg { font: 600 14px Arial, sans-serif; fill:#0f172a; }
      .ret { font: 500 13px Arial, sans-serif; fill:#475569; }
      .noteTitle { font: 700 16px Arial, sans-serif; fill:#854d0e; }
      .noteText { font: 500 13px Arial, sans-serif; fill:#78350f; }
      .lifeline { stroke:#cbd5e1; stroke-width:2; stroke-dasharray:10 8; }
      .arrow { stroke:#334155; stroke-width:2.6; fill:none; marker-end:url(#arrowhead); }
      .return { stroke:#94a3b8; stroke-width:2.1; fill:none; stroke-dasharray:10 8; marker-end:url(#openarrow); }
      .activation-blue { fill:#dbeafe; stroke:#60a5fa; stroke-width:1.2; rx:7; }
      .activation-green { fill:#dcfce7; stroke:#4ade80; stroke-width:1.2; rx:7; }
      .activation-amber { fill:#fef3c7; stroke:#f59e0b; stroke-width:1.2; rx:7; }
      .group { fill:#ffffff; stroke:#e2e8f0; stroke-width:1.5; rx:14; }
      .note { fill:#fffbeb; stroke:#f59e0b; stroke-width:1.4; rx:14; }
      .divider { stroke:#e2e8f0; stroke-width:1.4; }</style>
 </defs>
 <!-- participant headers -->
 <!-- actor -->
 <!-- boxes -->
 <g class="layer">
  <title>Layer 1</title>
  <rect fill="#f8fafc" height="1080" id="svg_3" width="1700" x="-2" y="11"/>
  <text class="title" id="svg_4" style="cursor: move;" text-anchor="middle" x="850" y="44">Sequence Diagram: Feed Load</text>
  <g id="svg_6" transform="matrix(1 0 0 1 0 0) translate(70 103)">
   <circle cx="35" cy="22" fill="none" id="svg_7" r="14" stroke="#0f172a" stroke-width="3"/>
   <line id="svg_8" stroke="#0f172a" stroke-width="3" x1="35" x2="35" y1="36" y2="76"/>
   <line id="svg_9" stroke="#0f172a" stroke-width="3" x1="11" x2="59" y1="50" y2="50"/>
   <line id="svg_10" stroke="#0f172a" stroke-width="3" x1="35" x2="14" y1="76" y2="106"/>
   <line id="svg_11" stroke="#0f172a" stroke-width="3" x1="35" x2="56" y1="76" y2="106"/>
  </g>
  <text class="boxLabel1" id="svg_12" text-anchor="middle" x="105" y="250">User</text>
  <text class="boxLabel2" id="svg_13" text-anchor="middle" x="105" y="270">&lt;&lt;actor&gt;&gt;</text>
  <rect fill="#ecfeff" height="62" id="svg_14" rx="14" stroke="#0891b2" stroke-width="2" width="140" x="150" y="122"/>
  <text class="boxLabel1" id="svg_15" text-anchor="middle" x="220" y="147">React Client</text>
  <text class="boxLabel2" id="svg_16" text-anchor="middle" x="220" y="169">UI / axios</text>
  <rect fill="#fff1f2" height="62" id="svg_17" rx="14" stroke="#e11d48" stroke-width="2" width="140" x="340" y="122"/>
  <text class="boxLabel1" id="svg_18" text-anchor="middle" x="410" y="147">JwtAuthFilter</text>
  <text class="boxLabel2" id="svg_19" text-anchor="middle" x="410" y="169">validates JWT</text>
  <rect fill="#eef2ff" height="62" id="svg_20" rx="14" stroke="#6366f1" stroke-width="2" width="140" x="540" y="122"/>
  <text class="boxLabel1" id="svg_21" text-anchor="middle" x="610" y="147">FeedController</text>
  <text class="boxLabel2" id="svg_22" text-anchor="middle" x="610" y="169">GET /api/feed</text>
  <rect fill="#ecfccb" height="62" id="svg_23" rx="14" stroke="#65a30d" stroke-width="2" width="140" x="740" y="122"/>
  <text class="boxLabel1" id="svg_24" text-anchor="middle" x="810" y="147">FeedService</text>
  <text class="boxLabel2" id="svg_25" text-anchor="middle" x="810" y="169">myFeed()</text>
  <rect fill="#f0fdf4" height="62" id="svg_26" rx="14" stroke="#16a34a" stroke-width="2" width="140" x="940" y="122"/>
  <text class="boxLabel1" id="svg_27" text-anchor="middle" x="1010" y="147">FollowService</text>
  <text class="boxLabel2" id="svg_28" text-anchor="middle" x="1010" y="169">myFollowingIds()</text>
  <rect fill="#fff7ed" height="62" id="svg_29" rx="14" stroke="#ea580c" stroke-width="2" width="221" x="1110" y="122"/>
  <text class="boxLabel1" id="svg_30" text-anchor="middle" x="1220" y="147">TagFollowRepository</text>
  <text class="boxLabel2" id="svg_31" text-anchor="middle" x="1220" y="169">findFollowedTagNamesByUserId()</text>
  <rect fill="#eff6ff" height="62" id="svg_32" rx="14" stroke="#2563eb" stroke-width="2" width="174" x="1360" y="122"/>
  <text class="boxLabel1" id="svg_33" text-anchor="middle" x="1450" y="147">ResourceRepository</text>
  <text class="boxLabel2" id="svg_34" text-anchor="middle" x="1450" y="169">findFeedWithTags()</text>
  <rect fill="#fdf4ff" height="62" id="svg_35" rx="14" stroke="#a21caf" stroke-width="2" width="140" x="1540" y="122"/>
  <text class="boxLabel1" id="svg_36" text-anchor="middle" x="1610" y="147">ResourceService</text>
  <text class="boxLabel2" id="svg_37" text-anchor="middle" x="1610" y="169">enrichPage()</text>
  <line class="lifeline" id="svg_38" x1="105" x2="105" y1="184" y2="880"/>
  <line class="lifeline" id="svg_39" x1="220" x2="220" y1="184" y2="880"/>
  <line class="lifeline" id="svg_40" x1="410" x2="410" y1="184" y2="880"/>
  <line class="lifeline" id="svg_41" x1="610" x2="610" y1="184" y2="880"/>
  <line class="lifeline" id="svg_42" x1="810" x2="810" y1="184" y2="880"/>
  <line class="lifeline" id="svg_43" x1="1010" x2="1010" y1="184" y2="880"/>
  <line class="lifeline" id="svg_44" x1="1220" x2="1220" y1="184" y2="880"/>
  <line class="lifeline" id="svg_45" x1="1450" x2="1450" y1="184" y2="880"/>
  <line class="lifeline" id="svg_46" x1="1610" x2="1610" y1="184" y2="880"/>
  <rect class="activation-blue" height="419" id="svg_47" width="16" x="212" y="301"/>
  <rect class="activation-amber" height="80" id="svg_48" width="16" x="402" y="342"/>
  <rect class="activation-blue" height="280" id="svg_49" width="16" x="602" y="420"/>
  <rect class="activation-green" height="325" id="svg_50" transform="matrix(1 0 0 1 0 0)" width="16" x="802" y="460"/>
  <rect class="activation-green" height="70" id="svg_51" width="16" x="1002" y="512"/>
  <rect class="activation-amber" height="70" id="svg_52" width="16" x="1212" y="600"/>
  <rect class="activation-blue" height="80" id="svg_53" width="16" x="1442" y="688"/>
  <rect class="activation-amber" height="95" id="svg_54" width="16" x="1602" y="792"/>
  <line class="arrow" id="svg_55" x1="105" x2="220" y1="300" y2="300"/>
  <text class="msg" id="svg_56" text-anchor="middle" x="162.5" y="292">1. Open Home / Feed page</text>
  <line class="arrow" id="svg_57" x1="230" x2="410" y1="340" y2="340"/>
  <text class="msg" font-size="14" id="svg_58" text-anchor="middle" x="401" y="325">2. GET /api/feed?page=0&amp;size=10 + Bearer token</text>
  <line class="return" id="svg_59" x1="410" x2="220" y1="382" y2="382"/>
  <text class="ret" font-size="12.07" id="svg_60" text-anchor="middle" x="321.51" y="374">token valid, set SecurityContext</text>
  <line class="arrow" id="svg_61" x1="231" x2="610" y1="420" y2="420"/>
  <text class="msg" font-size="14" id="svg_62" text-anchor="middle" x="547" y="408">3. Forward request to FeedController</text>
  <line class="arrow" id="svg_63" transform="matrix(1 0 0 1 0 0)" x1="619" x2="810" y1="460" y2="460"/>
  <text class="msg" font-size="14" id="svg_64" text-anchor="middle" x="760" y="449">4. myFeed(pageable, principal.userId)</text>
  <line class="arrow" id="svg_65" x1="818" x2="1010" y1="512" y2="512"/>
  <text class="msg" font-size="14" id="svg_66" text-anchor="middle" transform="matrix(1 0 0 1 0 0)" x="916" y="506">5. myFollowingIds(userId)</text>
  <line class="return" id="svg_67" x1="1010" x2="810" y1="548" y2="548"/>
  <text class="ret" id="svg_68" text-anchor="middle" transform="matrix(1 0 0 1 0 0)" x="910" y="540">followingIds</text>
  <line class="arrow" id="svg_69" x1="820" x2="1220" y1="600" y2="600"/>
  <text class="msg" font-size="14" id="svg_70" text-anchor="middle" x="969" y="595">6. findFollowedTagNamesByUserId(userId)</text>
  <line class="return" id="svg_71" x1="1220" x2="810" y1="636" y2="636"/>
  <text class="ret" id="svg_72" text-anchor="middle" x="1015" y="628">followedTags</text>
  <line class="arrow" id="svg_73" transform="matrix(1 0 0 1 0 0)" x1="820" x2="1450" y1="688" y2="688"/>
  <text class="msg" id="svg_74" text-anchor="middle" x="1130" y="680">7. findFeedWithTags(userId, followingIds, followedTags, pageable)</text>
  <line class="return" id="svg_75" x1="1450" x2="810" y1="724" y2="724"/>
  <text class="ret" id="svg_76" text-anchor="middle" x="1130" y="716">Page&lt;Resource&gt;</text>
  <line class="arrow" id="svg_77" x1="810" x2="1610" y1="792" y2="792"/>
  <text class="msg" id="svg_78" style="cursor: move;" text-anchor="middle" x="1210" y="784">8. enrichPage(resources, userId)</text>
  <line class="return" id="svg_79" x1="1610" x2="810" y1="840" y2="840"/>
  <text class="ret" id="svg_80" text-anchor="middle" x="1210" y="832">Page&lt;ResourceResponse&gt; (batched counts + flags)</text>
  <line class="return" id="svg_81" x1="810" x2="610" y1="900" y2="900"/>
  <line class="return" id="svg_83" x1="610" x2="220" y1="940" y2="940"/>
  <text class="ret" id="svg_84" style="cursor: move;" text-anchor="middle" x="415" y="932"/>
  <line class="return" id="svg_85" x1="220" x2="105" y1="980" y2="980"/>
  <text class="msg" font-size="14" id="svg_98" style="cursor: move;" text-anchor="middle" x="715.48" y="889.37">9. return page response</text>
  <text class="msg" font-size="14" id="svg_99" text-anchor="middle" transform="matrix(1 0 0 1 0 0)" x="417.36" y="930.37">10. 200 OK { content, page, totalPages, totalElements }</text>
  <text class="msg" font-size="14" id="svg_100" text-anchor="middle" transform="matrix(1 0 0 1 0 0)" x="175.96" y="974.06">11. Render feed cards</text>
 </g>
</svg>